<!--<svg xmlns="http://www.w3.org/2000/svg" viewBox="-1.5 -1.5 24 24" width="72" height="72"><path fill="none" d="M0 0h24v24H0z"/><path d="M3.783 2.826L12 1l8.217 1.826a1 1 0 0 1 .783.976v9.987a6 6 0 0 1-2.672 4.992L12 23l-6.328-4.219A6 6 0 0 1 3 13.79V3.802a1 1 0 0 1 .783-.976zM12 11a2.5 2.5 0 1 0 0-5 2.5 2.5 0 0 0 0 5zm-4.473 5h8.946a4.5 4.5 0 0 0-8.946 0z"/></svg>
-->
<svg xmlns="http://www.w3.org/2000/svg" viewBox="0 0 24 24" width="76" height="76"><path fill="none" d="M0 0h24v24H0z"/><path d="M12 14v8H4a8 8 0 0 1 8-8zm0-1c-3.315 0-6-2.685-6-6s2.685-6 6-6 6 2.685 6 6-2.685 6-6 6zm9 4h1v5h-8v-5h1v-1a3 3 0 0 1 6 0v1zm-2 0v-1a1 1 0 0 0-2 0v1h2z"/></svg>